<svg xmlns="http://www.w3.org/2000/svg" style="display:none;" shape-rendering="geometricPrecision" text-rendering="geometricPrecision" image-rendering="optimizeQuality"
     fill-rule="evenodd" clip-rule="evenodd">
    <defs>
        <style>
            .str0{stroke:#e0a509;stroke-width:1.09;stroke-miterlimit:22.9256}.fil2{fill:#1f1b20}.fil8{fill:#321f19}.fil5{fill:#55301b}.fil3{fill:#e0a509}.fil1{fill:#fdbf12}.fil4{fill:#fefefe}.fil6{fill:#1f1b20;fill-rule:nonzero}.fil10,.fil7{fill:#fefefe;fill-opacity:.290196}.fil10{fill-opacity:.619608}
        </style>
        <g id="g1k_logo">
            <path d="M67.8 39.8c-11.3-4.5-22.6-10-35.2-5.9l22.6 16.8a47.4 47.4 0 0 0-38.5.4l37.1 13.1C27.5 59 9.4 69 0 95l22.6-9c-14 12.7-15.1 31.3-15.8 50.2l21.7-24a93.6 93.6 0 0 0-4.5 65.6l9-30.3c-2 17.8 3 51.2 14.2 70.3a62 62 0 0 1 6.1-36c-1 14.2 2.1 40.2 8.3 55.7 4.2-12.7 7-14.4 18.3-22.2a76.8 76.8 0 0 0-.4 37c2.9-10.1 6.4-20 11.7-28.9-.5 9 .4 18.1 2.3 27.1l12.7-17.1c0 8.1 3.2 15.2 6.8 22.1-2.4-9.5-1.9-19 1.8-28.5A54 54 0 0 1 121 252c5.6-3.8 10.8-8.5 12.7-20.8l10.4 15.4.4-15.9 9 11.8c1.5-13 6.8-23.4 2.2-29 10.8 6.5 7.4 18.7 7.4 31.3 16.4-11.2 23.5-65 19-81 3.6 14 6 49.6 9.6 63.4 9.3-19 14.2-59.1 12.7-77 2.5 11 5 21.8 7.7 32.7a76 76 0 0 0-5.5-68.4l22.2 22.2a91.7 91.7 0 0 0-16.3-50.2l16.3 8.6c-6-15.8-15.5-27.5-31.2-31.2l23 2.7c-11.8-14.3-24-28.5-49.3-33 11-7.9 22-3.8 33-3.2-19-15.8-38.4-26.7-61-5 2.7-10 15-16 29.9-21.2-26.6-4-51.8-3.5-67.4 25.3A80 80 0 0 1 119.4 0c-14.8 6.4-27.7 14.4-28 31.7A88.8 88.8 0 0 1 88.7.9C80.6 10 75.9 20.3 78.7 33A54.6 54.6 0 0 1 64.2 5.4 57.6 57.6 0 0 0 68 39.8z"
                  fill="#d85a12"/>
            <path class="fil1"
                  d="M119.5 70.9c17.7-18.5 33.9-28.6 40.5 13.6 16.9 8 29 20.7 19.4 54.1-15.8 12.3-28.1 37-40.9 46.3-12.8 9.3-22.3 8.4-35.5.8-13.3-7.5-27-33.3-43.4-47-8.8-28.6.2-45.1 19-55 5-37.2 20.5-34 40.9-12.8zM163.7 64.9c10.2 4.4 16 11.2 17 19.6 8.5-9.6 11.5-27 4.5-30-4.6-2-19 6.9-21.5 10.4zM76.9 64.9c-10.3 4.4-16 11.2-17 19.6-8.5-9.6-11.6-27-4.6-30 4.4-2 18.7 6.3 21.6 10.4z"/>
            <path class="fil2"
                  d="M132 106.7c.8.2 1 .9 9.4-3 9 5.2 14.4 3.6 16.5-4.6 3.3-1.5 6.6-2.5 9.1-4l-23.8.7c-2.5 3.5-4.4 6.7-11.2 10.9zM106.2 106.7c-.8.2-.9.9-9.4-3-8.9 5.2-14.3 3.6-16.5-4.6-3.2-1.5-6.5-2.5-9.1-4l23.9.7c2.5 3.5 4.4 6.7 11.1 11z"/>
            <path class="fil3 str0" d="M104.3 141.3c2-9.4 2.5-20.2 4.1-29.6 2.6-14.7-9.2 30.1-8.3 30l4.2-.4zM134.8 139.2c-2-9.5-3.1-20.1-4-29.6-1-9.5 8.2 32 8.2 32l-4.2-2.4z"/>
            <path class="fil4"
                  d="M150.3 175.5a44.3 44.3 0 0 1-4.3-27c-8.8-12-17.7-13.6-26.6-9.6-10.2-3.7-19.5-3-26 10.3.2 8.9-1.1 17.8-3.8 26.7 5.6 13.7 15.6 18 21.6 18.7 6 .6 7-2.8 8-2.7.9.1 1.7 3.3 8 2.7 6.3-.5 15.7-4.7 23-19.1z"/>
            <path class="fil5" d="M97.7 168c14.7 9.3 29.9 8.8 45.5 0a62.7 62.7 0 0 1-45.5 0z"/>
            <path class="fil5" d="M118.2 145.8h2.5v28.4h-2.5z"/>
            <path class="fil6"
                  d="M81.5 153.7c-7.2 0-14.2.9-21.6 2.5 5.5-.4 18.5-1.1 21.6-1.1 24.8 3.7 37 3.9 0-1.4zM86.8 162.8a26 26 0 0 0-12.8 8.8 49 49 0 0 1 13-7.4c17.1-2 27.8-4.1-.2-1.4zM89.9 144.1c-5-2.1-10.3-3.3-16.3-4 6.2 1.4 13.5 4.2 16 5.2 14.6 7 24.4 10.5.3-1.2zM160.3 153.7c7.2 0 14.3.9 21.6 2.5a597 597 0 0 0-21.6-1.1c-24.7 3.7-37 3.9 0-1.4zM155 162.8c5.3 1.8 9.9 4.8 12.8 8.8-5-4-10.5-6.5-13-7.4-17-2-27.8-4.1.2-1.4zM152 144.1c4.9-2.1 10.2-3.3 16.2-4-6.2 1.4-13.5 4.2-16 5.2-14.6 7-24.4 10.5-.3-1.2z"/>
            <path class="fil5" d="M119.6 138.4c-10.3-4.7-15.4-2.6-15.2 3 .2 5.6 5.4 9.6 14.9 12.6 8.3-2.9 16.4-6.1 15.8-13 0-.7-.2-1.4-.5-2-1.7-4.6-8-4-15-.6z"/>
            <path class="fil2"
                  d="M105.7 145.7c.2-3.3 1.9-6.5 5.7-4.2 3.8 2.2 2.4 6.6.4 9.2-1.8-.8-4.2-2.6-6-5zM133.7 145.6c-.1-3.3-2.1-6.5-5.9-4.2-3.8 2.2-2.2 6.5-.2 9 2.3-.7 5-2.8 6.1-4.8z"/>
            <path class="fil7"
                  d="M62 114c-3.3-5.7-2.3-12.5 1.3-18.3 15.9-6.3 32.1-7.7 49.1 1.6-3.6 23.5-14.9 25.2-50.3 16.7zM178 114.4c3.4-5.7 2.4-12.5-1.2-18.3a54.8 54.8 0 0 0-49.1 1.6c3.6 23.5 14.9 25.2 50.3 16.7z"/>
            <path class="fil5"
                  d="M66.2 89.5h105.6l7 9c-5.2-7.4-54.3-6.1-49.6 1.7 7.4 13.4 4.2 15.6-7.6.6-2-2.4-2-2.7-3.9-.1-7.3 10-15.9 19.5-6.6-1.7-2-7-45.2-8.6-50.6.2 2.2-3 3.5-6.7 5.7-9.7z"/>
            <circle class="fil8" cx="119.7" cy="96" r="1.4"/>
            <circle class="fil8" cx="122.8" cy="95.3" r=".7"/>
            <circle class="fil8" cx="125.3" cy="94.8" r=".7"/>
            <circle class="fil8" cx="116.8" cy="95.5" r=".7"/>
            <circle class="fil8" cx="114.3" cy="95.2" r=".7"/>
            <circle cx="119.7" cy="96" r=".7" fill="#241e1b"/>
            <path class="fil10"
                  d="M177.6 103c-1 6.6-5.2 10.4-12.1 11.7 6-2.9 10.3-6.7 12-11.7zM177.6 109c-.5 3.2-2.5 5-5.9 5.7 3-1.4 5-3.2 5.9-5.7zM104.5 106c-2.4 6.2-7.2 9.1-14.2 9 6.5-1.6 11.4-4.5 14.2-9zM103.2 111.9c-1 3-3.4 4.4-6.8 4.3 3.1-.8 5.5-2.1 6.8-4.3z"/>
            <circle class="fil4" cx="119.7" cy="96" r=".3"/>
        </g>
    </defs>
</svg>